<svg id="_0019_security" xmlns="http://www.w3.org/2000/svg" xmlns:xlink="http://www.w3.org/1999/xlink" viewBox="0 0 500 500" data-imageid="cybersecurity-16" imageName="Cybersecurity" class="illustrations_image" style="width: 186px;"><defs><style>.cls-1_cybersecurity-16{fill:url(#linear-gradient);}.cls-1_cybersecurity-16,.cls-2_cybersecurity-16,.cls-3_cybersecurity-16,.cls-4_cybersecurity-16,.cls-5_cybersecurity-16,.cls-6_cybersecurity-16,.cls-7_cybersecurity-16,.cls-8_cybersecurity-16,.cls-9_cybersecurity-16,.cls-10_cybersecurity-16,.cls-11_cybersecurity-16,.cls-12_cybersecurity-16,.cls-13_cybersecurity-16,.cls-14_cybersecurity-16,.cls-15_cybersecurity-16,.cls-16_cybersecurity-16,.cls-17_cybersecurity-16,.cls-18_cybersecurity-16,.cls-19_cybersecurity-16,.cls-20_cybersecurity-16,.cls-21_cybersecurity-16,.cls-22_cybersecurity-16,.cls-23_cybersecurity-16,.cls-24_cybersecurity-16,.cls-25_cybersecurity-16,.cls-26_cybersecurity-16,.cls-27_cybersecurity-16{stroke-width:0px;}.cls-2_cybersecurity-16,.cls-15_cybersecurity-16{isolation:isolate;opacity:.18;}.cls-2_cybersecurity-16,.cls-27_cybersecurity-16{fill:#68e1fd;}.cls-3_cybersecurity-16{fill:url(#linear-gradient-11-cybersecurity-16);}.cls-4_cybersecurity-16{fill:url(#linear-gradient-12-cybersecurity-16);}.cls-5_cybersecurity-16{fill:url(#linear-gradient-13-cybersecurity-16);}.cls-6_cybersecurity-16{fill:url(#linear-gradient-10-cybersecurity-16);}.cls-7_cybersecurity-16{fill:url(#linear-gradient-17-cybersecurity-16);}.cls-8_cybersecurity-16{fill:url(#linear-gradient-16-cybersecurity-16);}.cls-9_cybersecurity-16{fill:url(#linear-gradient-19-cybersecurity-16);}.cls-10_cybersecurity-16{fill:url(#linear-gradient-15-cybersecurity-16);}.cls-11_cybersecurity-16{fill:url(#linear-gradient-21-cybersecurity-16);}.cls-12_cybersecurity-16{fill:url(#linear-gradient-18-cybersecurity-16);}.cls-13_cybersecurity-16{fill:url(#linear-gradient-14-cybersecurity-16);}.cls-14_cybersecurity-16{fill:url(#linear-gradient-20-cybersecurity-16);}.cls-15_cybersecurity-16{fill:#1d2741;}.cls-16_cybersecurity-16{fill:url(#linear-gradient-4-cybersecurity-16);}.cls-17_cybersecurity-16{fill:url(#linear-gradient-2-cybersecurity-16);}.cls-18_cybersecurity-16{fill:url(#linear-gradient-3-cybersecurity-16);}.cls-19_cybersecurity-16{fill:url(#linear-gradient-8-cybersecurity-16);}.cls-20_cybersecurity-16{fill:url(#linear-gradient-9-cybersecurity-16);}.cls-21_cybersecurity-16{fill:url(#linear-gradient-7-cybersecurity-16);}.cls-22_cybersecurity-16{fill:url(#linear-gradient-5-cybersecurity-16);}.cls-23_cybersecurity-16{fill:url(#linear-gradient-6-cybersecurity-16);}.cls-24_cybersecurity-16{fill:#231f20;}.cls-25_cybersecurity-16{fill:#fff;}.cls-26_cybersecurity-16{fill:#ffaa71;}</style><linearGradient id="linear-gradient-cybersecurity-16" x1="-16.87" y1="229.4" x2="796.3" y2="188.35" gradientUnits="userSpaceOnUse"><stop offset="0" stop-color="#231f20" stop-opacity="0"/><stop offset="1" stop-color="#231f20"/></linearGradient><linearGradient id="linear-gradient-2-cybersecurity-16" x1="-94.26" y1="860.44" x2="-88.52" y2="377.94" gradientTransform="translate(342.88 873.01) scale(1 -1)" gradientUnits="userSpaceOnUse"><stop offset="0" stop-color="#000" stop-opacity="0"/><stop offset=".5" stop-color="#000" stop-opacity=".38"/><stop offset=".97" stop-color="#000"/><stop offset=".97" stop-color="#0c0c11"/><stop offset=".98" stop-color="#312f43"/><stop offset=".99" stop-color="#3f3d56"/></linearGradient><linearGradient id="linear-gradient-3-cybersecurity-16" x1="-341.19" y1="463.52" x2="-341" y2="440.92" gradientTransform="translate(409 537.03) scale(1 -1)" xlink:href="#linear-gradient-2-cybersecurity-16"/><linearGradient id="linear-gradient-4-cybersecurity-16" x1="-326.87" y1="463.64" x2="-326.67" y2="441.04" gradientTransform="translate(409 537.03) scale(1 -1)" xlink:href="#linear-gradient-2-cybersecurity-16"/><linearGradient id="linear-gradient-5-cybersecurity-16" x1="-312.54" y1="463.76" x2="-312.35" y2="441.16" gradientTransform="translate(409 537.03) scale(1 -1)" xlink:href="#linear-gradient-2-cybersecurity-16"/><linearGradient id="linear-gradient-6-cybersecurity-16" x1="-316.67" y1="457.54" x2="-232.66" y2="457.54" gradientTransform="translate(342.88 873.01) scale(1 -1)" xlink:href="#linear-gradient-cybersecurity-16"/><linearGradient id="linear-gradient-7-cybersecurity-16" x1="-344.62" y1="577.31" x2="-106.92" y2="614.34" gradientTransform="translate(342.88 873.01) scale(1 -1)" xlink:href="#linear-gradient-cybersecurity-16"/><linearGradient id="linear-gradient-8-cybersecurity-16" x1="-321.58" y1="587.76" x2="-153.66" y2="597.87" gradientTransform="translate(342.88 873.01) scale(1 -1)" xlink:href="#linear-gradient-cybersecurity-16"/><linearGradient id="linear-gradient-9-cybersecurity-16" x1="-189.26" y1="485.71" x2="-278.82" y2="609.72" gradientTransform="translate(342.88 873.01) scale(1 -1)" xlink:href="#linear-gradient-cybersecurity-16"/><linearGradient id="linear-gradient-10-cybersecurity-16" x1="-224.91" y1="500.72" x2="-333.16" y2="492.17" gradientTransform="translate(342.88 873.01) scale(1 -1)" gradientUnits="userSpaceOnUse"><stop offset="0" stop-color="#000" stop-opacity="0"/><stop offset=".87" stop-color="#000" stop-opacity=".66"/><stop offset="1" stop-color="#000"/></linearGradient><linearGradient id="linear-gradient-11-cybersecurity-16" x1="-74.06" y1="796.05" x2="-113.54" y2="545.36" gradientTransform="translate(342.88 873.01) scale(1 -1)" xlink:href="#linear-gradient-cybersecurity-16"/><linearGradient id="linear-gradient-12-cybersecurity-16" x1="246.19" y1="189.33" x2="244.45" y2="141.11" xlink:href="#linear-gradient-cybersecurity-16"/><linearGradient id="linear-gradient-13-cybersecurity-16" x1="351.07" y1="258.91" x2="402.87" y2="384.99" xlink:href="#linear-gradient-cybersecurity-16"/><linearGradient id="linear-gradient-14-cybersecurity-16" x1="292.72" y1="323.5" x2="410.44" y2="383.01" xlink:href="#linear-gradient-cybersecurity-16"/><linearGradient id="linear-gradient-15-cybersecurity-16" x1="378.8" y1="246.12" x2="436.47" y2="434.75" xlink:href="#linear-gradient-cybersecurity-16"/><linearGradient id="linear-gradient-16-cybersecurity-16" x1="382.5" y1="244.99" x2="440.16" y2="433.62" xlink:href="#linear-gradient-cybersecurity-16"/><linearGradient id="linear-gradient-17-cybersecurity-16" x1="387.52" y1="249.79" x2="439.32" y2="375.87" xlink:href="#linear-gradient-cybersecurity-16"/><linearGradient id="linear-gradient-18-cybersecurity-16" x1="368.79" y1="215.57" x2="397.45" y2="258.79" xlink:href="#linear-gradient-cybersecurity-16"/><linearGradient id="linear-gradient-19-cybersecurity-16" x1="39.02" y1="623.38" x2="91.95" y2="626.93" gradientTransform="translate(342.88 873.01) scale(1 -1)" xlink:href="#linear-gradient-cybersecurity-16"/><linearGradient id="linear-gradient-20-cybersecurity-16" x1="328.7" y1="269.24" x2="348.25" y2="321.04" xlink:href="#linear-gradient-cybersecurity-16"/><linearGradient id="linear-gradient-21-cybersecurity-16" x1="363.39" y1="256.15" x2="382.93" y2="307.95" xlink:href="#linear-gradient-cybersecurity-16"/></defs><g id="background_cybersecurity-16"><path class="cls-2_cybersecurity-16 targetColor" d="M464.66,261.96c2.81-29.3,17.07-60.3,2.49-86.79-3.83-6.92-9.31-12.85-15.45-18.36-8.11-7.27-17.34-13.84-25.42-21.16-14.29-12.98-22.46-28.5-33.47-42.73-4.56-6.01-9.75-11.51-15.48-16.42-2.28-1.92-4.58-3.82-6.92-5.68-19.14-15.16-40.67-28.17-65.17-35.73-34.73-10.67-76.02-8.96-105.35,10.55-10.56,7.02-19.11,15.91-27.36,25.18-6.66,7.45-13.08,15.1-20.2,22.09-6.36,6.28-13.25,12.04-21.3,16.65-11.46,6.58-24.64,10.45-36.8,15.97-7.8,3.54-15.22,7.87-22.14,12.92-9.29,6.75-17.6,14.75-24.69,23.79-15.37,19.59-24.07,43.22-23.48,67.01.09,3.72.39,7.47.51,11.2.23,4.11,0,8.23-.71,12.28-1.29,6.64-4.45,12.88-7.71,19.07-4.45,8.42-9.1,16.75-9.55,25.9-.77,15.73,10.88,29.21,23.8,40.73,2.16,1.92,4.36,3.8,6.53,5.62,3.46,2.91,7.02,5.81,10.61,8.68l.69.55c1.92,1.53,3.85,3.05,5.81,4.56,4.91,3.78,9.94,7.47,15.1,10.99,2.31,1.56,4.61,3.08,6.92,4.56,5.37,3.45,10.91,6.62,16.6,9.51,14.05,7.14,29.06,12.36,45.21,14.43,44.23,5.53,88.23-14.13,132.84-11.53,29.27,1.7,56.57,12.87,84.94,19.37,28.37,6.5,61.31,7.54,84.18-8.53,21.08-14.78,27.99-40.33,28.05-63.95.06-23.62-5.38-47.19-3.11-70.74Z" style="fill: rgb(104, 225, 253);"/></g><g id="windows_cybersecurity-16"><path class="cls-27_cybersecurity-16 targetColor" d="M432.56,70.83H66.57c-10.55-.02-19.11,8.52-19.13,19.07h0v263.38h404.23V89.93c0-10.55-8.55-19.1-19.1-19.1h0Z" style="fill: rgb(104, 225, 253);"/><path class="cls-1_cybersecurity-16" d="M120.69,310.73c-.69,7.22-7.17,12.52-13.84,14.78-3.46,1.18-7.13,1.83-10.1,3.98s-4.91,6.48-3.04,9.69c4.65-.02,8.84,2.8,10.56,7.12-4.27,6.5-11.83,10.05-19.37,11.07-7.54,1.02-15.22-.18-22.69-1.43-2.62-.43-5.42-.95-7.31-2.88-1.89-1.92-2.41-4.72-2.88-7.37-.06-.37-.13-.75-.2-1.13h-4.53V92.92h24.77v119.69c0,9.76-.44,19.61-.29,29.33.15,9.26,6.31,13.95,12.18,20.68,1.81,2.08,3.68,4.28,4.21,7.01.57,2.9-.46,5.97.3,8.81,1.33,4.94,7.55,6.81,12.32,5.41s8.6-5,12.72-7.86c7.11-4.93,15.46-7.78,24.11-8.23-2.9,12.29-17.16,20.06-17.49,32.73-.1,3.43.91,6.81.57,10.23Z"/><path class="cls-17_cybersecurity-16" d="M451.67,89.93v2.99H47.44v-2.97c0-10.55,8.54-19.11,19.09-19.12,0,0,0,0,.01,0h365.99c10.55,0,19.11,8.55,19.11,19.1h.03Z"/><circle class="cls-18_cybersecurity-16" cx="67.87" cy="81.04" r="4.27"/><circle class="cls-16_cybersecurity-16" cx="82.2" cy="81.04" r="4.27"/><circle class="cls-22_cybersecurity-16" cx="96.52" cy="81.04" r="4.27"/></g><g id="plant_cybersecurity-16"><path class="cls-23_cybersecurity-16" d="M109.99,410.48c.87,2.3-.93,4.84-3.13,5.94-2.2,1.09-4.75,1.19-7.13,1.81-3.7.95-6.96,3.13-10.54,4.46-4.92,1.83-10.27,2.03-15.53,2.21-15.84.55-32.75.82-46.22-7.56-.51-.25-.92-.66-1.17-1.16-.14-.5-.09-1.04.15-1.5,1.11-2.57,4.31-3.35,7.08-3.78,13.03-2.03,26.38-3.87,39.58-4.34,6.86-.23,34.3-3,36.9,3.92Z"/><path class="cls-27_cybersecurity-16 targetColor" d="M29.83,321.58c-6.23-10.07-10.59-21.38-11.82-33.15-.76-7.17-.44-14.74-3.67-21.19-1.92-3.83-5.06-7.13-6.03-11.31-1.8-7.82,4.48-14.96,10.24-20.55.35-.41.81-.71,1.33-.86.9-.17,1.71.58,2.26,1.32,3.3,4.45,3.56,10.38,4.41,15.82.91,5.92,2.84,12.03,7.35,15.98,4.5,3.95,11.44,5.69,13.66,11.26,1.97,4.97-.86,10.83.92,15.87,1.78,5.04,7.86,8.07,8.77,13.38.61,3.53-1.29,7.03-1.23,10.61.04,2.73,1.21,5.29,1.87,7.94,1.43,5.69,0,22.34-8.64,17.47-7.82-4.39-14.82-15.18-19.41-22.6Z" style="fill: rgb(104, 225, 253);"/><path class="cls-21_cybersecurity-16" d="M29.83,321.58c-6.23-10.07-10.59-21.38-11.82-33.15-.76-7.17-.44-14.74-3.67-21.19-1.92-3.83-5.06-7.13-6.03-11.31-1.8-7.82,4.48-14.96,10.24-20.55.35-.41.81-.71,1.33-.86.9-.17,1.71.58,2.26,1.32,3.3,4.45,3.56,10.38,4.41,15.82.91,5.92,2.84,12.03,7.35,15.98,4.5,3.95,11.44,5.69,13.66,11.26,1.97,4.97-.86,10.83.92,15.87,1.78,5.04,7.86,8.07,8.77,13.38.61,3.53-1.29,7.03-1.23,10.61.04,2.73,1.21,5.29,1.87,7.94,1.43,5.69,0,22.34-8.64,17.47-7.82-4.39-14.82-15.18-19.41-22.6Z"/><path class="cls-27_cybersecurity-16 targetColor" d="M45.54,310.16c-2.26-11.61-2.34-23.74.69-35.19,1.83-6.98,4.84-13.94,4.06-21.12-.44-4.27-2.21-8.46-1.63-12.71,1.09-7.95,9.48-12.45,16.84-15.61.47-.26,1.01-.37,1.55-.33.91.17,1.38,1.15,1.64,2.03,1.52,5.33-.33,10.95-1.47,16.36-1.24,5.85-1.59,12.26,1.22,17.55,2.81,5.29,8.7,9.37,8.8,15.37.09,5.35-4.63,9.83-4.75,15.17-.12,5.34,4.5,10.32,3.46,15.62-.69,3.51-3.69,6.12-4.91,9.48-.93,2.57-.74,5.38-1.05,8.09-.69,5.83-7.87,20.91-14.27,13.28-5.76-6.9-8.52-19.46-10.18-28.01Z" style="fill: rgb(104, 225, 253);"/><path class="cls-19_cybersecurity-16" d="M45.54,310.16c-2.26-11.61-2.34-23.74.69-35.19,1.83-6.98,4.84-13.94,4.06-21.12-.44-4.27-2.21-8.46-1.63-12.71,1.09-7.95,9.48-12.45,16.84-15.61.47-.26,1.01-.37,1.55-.33.91.17,1.38,1.15,1.64,2.03,1.52,5.33-.33,10.95-1.47,16.36-1.24,5.85-1.59,12.26,1.22,17.55,2.81,5.29,8.7,9.37,8.8,15.37.09,5.35-4.63,9.83-4.75,15.17-.12,5.34,4.5,10.32,3.46,15.62-.69,3.51-3.69,6.12-4.91,9.48-.93,2.57-.74,5.38-1.05,8.09-.69,5.83-7.87,20.91-14.27,13.28-5.76-6.9-8.52-19.46-10.18-28.01Z"/><path class="cls-27_cybersecurity-16 targetColor" d="M61.49,312.08c5.95-10.23,13.89-19.37,23.68-26.03,5.98-4.05,12.81-7.32,16.97-13.21,2.48-3.5,3.92-7.82,7.15-10.63,6.05-5.27,15.32-3.1,22.96-.64.53.11,1.01.38,1.38.77.57.69.29,1.78-.1,2.62-2.37,5-7.46,8.01-11.89,11.33-4.79,3.58-9.28,8.17-10.65,14-1.37,5.83.37,12.78-3.51,17.36-3.46,4.08-9.96,4.34-13.57,8.3-3.61,3.96-3.42,10.73-7.68,14.04-2.83,2.19-6.81,2.17-9.94,3.9-2.39,1.32-4.1,3.56-6.13,5.39-4.34,3.94-19.7,10.54-19.48.59.19-8.95,6.41-20.24,10.8-27.78Z" style="fill: rgb(104, 225, 253);"/><path class="cls-20_cybersecurity-16" d="M61.49,312.08c5.95-10.23,13.89-19.37,23.68-26.03,5.98-4.05,12.81-7.32,16.97-13.21,2.48-3.5,3.92-7.82,7.15-10.63,6.05-5.27,15.32-3.1,22.96-.64.53.11,1.01.38,1.38.77.57.69.29,1.78-.1,2.62-2.37,5-7.46,8.01-11.89,11.33-4.79,3.58-9.28,8.17-10.65,14-1.37,5.83.37,12.78-3.51,17.36-3.46,4.08-9.96,4.34-13.57,8.3-3.61,3.96-3.42,10.73-7.68,14.04-2.83,2.19-6.81,2.17-9.94,3.9-2.39,1.32-4.1,3.56-6.13,5.39-4.34,3.94-19.7,10.54-19.48.59.19-8.95,6.41-20.24,10.8-27.78Z"/><path class="cls-27_cybersecurity-16 targetColor" d="M98.63,348.04l-.93,5.24-.8,4.56-1.89,10.99-.75,4.56-1.91,10.99-.8,4.55-4.75,27.31h-49.36l-4.79-27.31-.8-4.55-1.89-10.99-.8-4.56-1.96-10.99-.78-4.56-.91-5.23c-.87-4.93,2.43-9.63,7.35-10.5h0c.52-.09,1.04-.14,1.57-.14h55.24c5,0,9.06,4.04,9.06,9.04h0c0,.53-.05,1.07-.14,1.59h.01Z" style="fill: rgb(104, 225, 253);"/><path class="cls-6_cybersecurity-16" d="M98.63,348.04l-.93,5.24-.8,4.56-1.89,10.99-.75,4.56-1.91,10.99-.8,4.55-4.75,27.31h-49.36l-4.79-27.31-.8-4.55-1.89-10.99-.8-4.56-1.96-10.99-.78-4.56-.91-5.23c-.87-4.93,2.43-9.63,7.35-10.5h0c.52-.09,1.04-.14,1.57-.14h55.24c5,0,9.06,4.04,9.06,9.04h0c0,.53-.05,1.07-.14,1.59h.01Z"/><polygon class="cls-27_cybersecurity-16 targetColor" points="97.73 353.28 96.93 357.84 27.23 357.84 26.44 353.28 97.73 353.28" style="fill: rgb(104, 225, 253);"/><polygon class="cls-27_cybersecurity-16 targetColor" points="95.01 368.83 94.22 373.39 29.96 373.39 29.16 368.83 95.01 368.83" style="fill: rgb(104, 225, 253);"/><polygon class="cls-27_cybersecurity-16 targetColor" points="92.32 384.38 91.52 388.93 32.67 388.93 31.87 384.38 92.32 384.38" style="fill: rgb(104, 225, 253);"/></g><g id="shadow_cybersecurity-16"><path class="cls-15_cybersecurity-16" d="M382,411.5c-6,1.22-11.65,3.72-17.25,6.23l-22.45,9.94c12.52,6.74,27.72,3.96,41.95,3.76,1.25,0,2.59,0,3.58.77,1.38,1.09,1.51,3.14,2.37,4.69,1.63,2.93,5.53,3.52,8.88,3.74,30.26,1.97,60.64,1,90.72-2.89,1.44-.19,2.95-.41,4.11-1.27,3.46-2.58,1.02-8.54-2.89-10.38-3.92-1.84-8.52-1.38-12.67-2.57-4.16-1.19-8.17-5.59-6.23-9.47-17.14.34-34.29.16-51.43-.55-12.94-.55-25.76-4.63-38.67-2Z"/><path id="shadow-2_cybersecurity-16" class="cls-15_cybersecurity-16" d="M348.38,240.21c-3.24-4.55-8.15-7.71-13.37-9.69-1.19-.45-2.53-.84-3.69-.33-.82.45-1.5,1.11-1.99,1.9-2.52,3.46-5.14,7.2-5.38,11.47-.36,6.5,4.79,13.43,1.49,19.04-.92,1.56-2.39,2.73-3.46,4.19-2.02,2.77-2.48,6.39-2.21,9.81.33,4.1.85,9.59-3.02,10.99-1.16.34-2.4.36-3.57.05-3.4-.69-6.54-2.32-9.87-3.29s-7.17-1.2-10.06.69c-.26,3.69,2.92,6.77,6.26,8.37s7.11,2.32,10.17,4.41c4.64,3.14,6.92,8.99,6.77,14.62-.15,5.62-2.35,10.95-5.15,15.8-1.31,2.26-2.77,4.5-3.31,7.06-1.06,5.09,1.79,10.09,4.52,14.53.8,1.29,1.68,2.66,3.08,3.27,1.18.4,2.45.5,3.68.3l48.53-4.15c1.38-.12,3-.39,3.59-1.65.26-.77.26-1.6,0-2.37-1.58-6.79-6.57-12.38-8.34-19.14-.82-3.15-.91-6.43-1-9.69-.36-13.41-.81-26.95-3.67-40.13-1.43-6.57-4.96-12.7-6.36-19.1-1.3-5.97.48-11.2-3.64-16.97Z"/></g><g id="lock_cybersecurity-16"><path class="cls-3_cybersecurity-16" d="M295.1,185.62v79.04c-.01,5.58-4.53,10.09-10.11,10.1h-79.02c-5.58,0-10.1-4.52-10.11-10.1v-79.04c0-5.58,4.52-10.1,10.1-10.1h79.02c5.58,0,10.1,4.52,10.11,10.09h0Z"/><path class="cls-27_cybersecurity-16 targetColor" d="M253.56,215.73c.09,2.98-1.47,5.76-4.05,7.25-.65.38-1.05,1.08-1.04,1.83v17.3c0,1.33-1.08,2.41-2.41,2.41h-1.18c-1.33,0-2.41-1.08-2.41-2.41h0v-17.3c0-.75-.39-1.46-1.04-1.84-3.87-2.23-5.19-7.17-2.96-11.04,2.23-3.87,7.17-5.19,11.04-2.96,2.43,1.4,3.96,3.97,4.04,6.77h0Z" style="fill: rgb(104, 225, 253);"/><path class="cls-4_cybersecurity-16" d="M272.23,175.54h-8.59v-11.53c-.02-10.03-8.18-18.14-18.21-18.12-10.03.02-18.14,8.18-18.12,18.21v11.44h-8.59v-11.76c.38-14.77,12.66-26.44,27.43-26.06,14.3.37,25.79,11.92,26.07,26.22v11.6Z"/></g><g id="character_cybersecurity-16"><path class="cls-24_cybersecurity-16" d="M451.61,406.33l7.24,6.92-10.43,10.38-13.1,1.13c-.8-2.29.23-4.82,2.39-5.92,2.41-1.3,5.03-2.16,7.74-2.53l-.28-5.35,6.43-4.62Z"/><path class="cls-24_cybersecurity-16" d="M371.07,405.78l1.07,8.73-24.53,10.99s-3.06-4.74.08-8.86c3.14-4.12,11.8-7.01,11.8-7.01l1.53-3.8,10.06-.06Z"/><path class="cls-27_cybersecurity-16 targetColor" d="M377.35,271.11s-8.88,6.57-9.82,16.76c-.93,10.19-1.38,13.77-1.38,13.77l-15.57-1.26-.21,8.61s20.65,7.55,23.82,6.26,7.13-6.97,7.13-6.97l-3.98-37.17Z" style="fill: rgb(104, 225, 253);"/><path class="cls-5_cybersecurity-16" d="M377.35,271.11s-8.88,6.57-9.82,16.76c-.93,10.19-1.38,13.77-1.38,13.77l-15.57-1.26-.21,8.61s20.65,7.55,23.82,6.26,7.13-6.97,7.13-6.97l-3.98-37.17Z"/><path class="cls-27_cybersecurity-16 targetColor" d="M383.32,325.43s-32.52,26.83-32.78,35.98c-.26,9.15,7.99,44.92,7.99,44.92l12.61-.07.37-37.6s26.59-9.28,29.49-14.9c2.89-5.61,9.02-32.99-17.67-28.34Z" style="fill: rgb(104, 225, 253);"/><path class="cls-13_cybersecurity-16" d="M383.32,325.43s-32.52,26.83-32.78,35.98c-.26,9.15,7.99,44.92,7.99,44.92l12.61-.07.37-37.6s26.59-9.28,29.49-14.9c2.89-5.61,9.02-32.99-17.67-28.34Z"/><path class="cls-27_cybersecurity-16 targetColor" d="M383.32,325.43s1.99,40.92,14.78,54.14c12.79,13.23,45.53,33.08,45.53,33.08l9.29-5.76-31.43-32.81s4.55-36.83-.83-43.28c-5.38-6.46-37.34-5.37-37.34-5.37Z" style="fill: rgb(104, 225, 253);"/><path class="cls-10_cybersecurity-16" d="M383.32,325.43s1.99,40.92,14.78,54.14c12.79,13.23,45.53,33.08,45.53,33.08l9.29-5.76-31.43-32.81s4.55-36.83-.83-43.28c-5.38-6.46-37.34-5.37-37.34-5.37Z"/><path class="cls-27_cybersecurity-16 targetColor" d="M383.32,325.43l-11.11-47.01s6.23-17.93,30.91-12.16c24.68,5.77,17.52,64.54,17.52,64.54,0,0-27.7,9.19-37.32-5.37Z" style="fill: rgb(104, 225, 253);"/><path class="cls-8_cybersecurity-16" d="M383.32,325.43l-11.11-47.01s6.23-17.93,30.91-12.16c24.68,5.77,17.52,64.54,17.52,64.54,0,0-27.7,9.19-37.32-5.37Z"/><path class="cls-27_cybersecurity-16 targetColor" d="M402.28,273.49s-1.48-7.82,6.46-5.74c7.94,2.09,20.31,29.06,19.85,32.81-.46,3.75-39.1,5.29-39.1,5.29l-.92-8.99,20.31-3.4s-7.46-12.79-6.61-19.97Z" style="fill: rgb(104, 225, 253);"/><path class="cls-7_cybersecurity-16" d="M402.28,273.49s-1.48-7.82,6.46-5.74c7.94,2.09,20.31,29.06,19.85,32.81-.46,3.75-39.1,5.29-39.1,5.29l-.92-8.99,20.31-3.4s-7.46-12.79-6.61-19.97Z"/><path class="cls-26_cybersecurity-16" d="M398.49,256.79c-.95,1.97-2.57,3.54-4.57,4.42-.34.12-.66.26-.98.42-.14.09-.27.2-.38.32-.69.77-.21,1.92,0,2.92.39,2.27-.93,4.59-2.82,5.89-1.06.68-2.23,1.19-3.46,1.5-1.72.45-3.58.55-4.88-.06-2.08-.98-1.87-4.15-2.32-6.1-1.51-6.31-2.83-12.78-2.14-19.3.37-3.46,1.34-6.99,3.42-9.8,2.08-2.81,5.4-4.84,8.9-4.78,3.5.06,6.82,2.27,9.32,4.84.87.86,1.61,1.85,2.19,2.93,1.62,3.24.76,7.13-.14,10.64-.46,2.13-1.17,4.19-2.12,6.15Z"/><path class="cls-27_cybersecurity-16 targetColor" d="M401.27,241.49s-10.38,0-16.65,3.65c-5.6,3.24-7.14,10.18-7.61,10.06-1.06-.24-4.51-6.92-3.06-8.39,1.45-1.47.3-1.48.3-1.48,0,0-1.67-2.77-.83-7.73.69-3.63,1.63-7.2,2.81-10.7,0,0,.44-1.65,6.72,0,6.28,1.65,16.87,6.68,17.46,8.72.59,2.04.1,2.97.1,2.97,0,0,1.72,1.27.75,2.91Z" style="fill: rgb(104, 225, 253);"/><path class="cls-12_cybersecurity-16" d="M401.27,241.49s-10.38,0-16.65,3.65c-5.6,3.24-7.14,10.18-7.61,10.06-1.06-.24-4.51-6.92-3.06-8.39,1.45-1.47.3-1.48.3-1.48,0,0-1.67-2.77-.83-7.73.69-3.63,1.63-7.2,2.81-10.7,0,0,.44-1.65,6.72,0,6.28,1.65,16.87,6.68,17.46,8.72.59,2.04.1,2.97.1,2.97,0,0,1.72,1.27.75,2.91Z"/><path class="cls-27_cybersecurity-16 targetColor" d="M384.62,245.12c3.64.88,7.34,1.5,11.07,1.85,3.35.21,5.76-.69,5.78-.85.04-.35-1.09,5.62-1.09,5.62l-2.54.89c-.98.35-2.02.47-3.06.36l-15.84-1.65s2.7-4.84,5.67-6.23Z" style="fill: rgb(104, 225, 253);"/><path class="cls-9_cybersecurity-16" d="M384.62,245.12c3.64.88,7.34,1.5,11.07,1.85,3.35.21,5.76-.69,5.78-.85.04-.35-1.09,5.62-1.09,5.62l-2.54.89c-.98.35-2.02.47-3.06.36l-15.84-1.65s2.7-4.84,5.67-6.23Z"/><path class="cls-25_cybersecurity-16" d="M391.13,248.18c.46-.12.94-.11,1.38.04.3.06.58.21.78.45.12.18.2.38.24.59.04.12.04.25,0,.37-.12.14-.31.2-.48.16-.83,0-1.64-.15-2.41-.46-.63-.33-.04-.95.49-1.14Z"/><path class="cls-25_cybersecurity-16" d="M398.43,248.52c.26-.24.61-.35.96-.33.23-.01.45.07.62.23.12.15.21.32.27.51.05.11.08.24.07.36-.03.14-.15.25-.3.28-.55.22-1.15.28-1.74.17-.5-.15-.21-.91.12-1.22Z"/><path class="cls-26_cybersecurity-16" d="M389.7,270.76c-1.06.68-2.23,1.19-3.46,1.5-1.03-1.16-1.69-2.61-1.9-4.15-.2-1.07-.32-2.15-.37-3.24-.13-.94.11-1.9.65-2.68.73-.68,1.74-.97,2.72-.8.98.11,1.92.45,2.89.55.83.09,1.83-.29,2.7-.34-.14.09-.27.2-.38.32-.69.77-.21,1.92,0,2.92.35,2.3-.96,4.62-2.86,5.92Z"/><path class="cls-27_cybersecurity-16 targetColor" d="M345.2,296.04c-.4-.32-.88-.53-1.38-.6-.52-.06-1.01.27-1.13.78,0,.35.12.69.34.97l.93,1.46c.12.15.19.33.2.53,0,.48-.69.58-1.18.52-3.04-.39-6.08-1.33-9.12-.93-.23,0-.46.1-.63.26-.18.27-.15.63.08.86.23.22.51.38.82.46,1.7.62,3.45,1.11,5.22,1.47-.2.5-.86.59-1.38.61-1.47.05-2.93.22-4.38.5-.82.15-1.83.57-1.84,1.38.05.56.45,1.03.99,1.16.54.13,1.09.14,1.63.06,1.9-.16,3.82-.11,5.71.15-2.05.24-3.99,1.02-5.62,2.28-.15.1-.27.24-.36.4-.19.4.17.89.59,1.02.44.09.89.06,1.31-.08,1.89-.44,3.82-.69,5.76-.75-1.17.54-2.26,1.24-3.24,2.08-.3.23-.53.53-.69.86-.16.35-.09.77.18,1.04.36.22.8.26,1.19.1,2.3-.62,4.34-2.12,6.7-2.46,1.23-.19,2.66-.11,3.51-1.02.37-.45.62-.98.75-1.54.51-1.78,1.57-5.53.5-7.26-.42-.69-1.45-1.26-2.08-1.77-1.08-.9-2.21-1.75-3.38-2.54Z" style="fill: rgb(104, 225, 253);"/><path class="cls-27_cybersecurity-16 targetColor" d="M383.76,293.21c-.4-.32-.88-.53-1.38-.6-.52-.06-1.01.27-1.13.78,0,.35.12.69.34.97l.93,1.46c.12.15.19.33.2.53-.03.48-.69.58-1.18.52-3.04-.39-6.08-1.34-9.12-.93-.23,0-.46.09-.63.25-.18.27-.15.64.08.87.23.22.51.38.82.46,1.7.62,3.45,1.11,5.22,1.47-.2.5-.86.58-1.38.6-1.47.06-2.93.23-4.38.51-.82.15-1.83.56-1.84,1.38.05.56.45,1.03.99,1.16.54.13,1.09.14,1.63.06,1.9-.16,3.82-.11,5.71.15-2.05.23-3.99,1.02-5.62,2.28-.15.1-.28.24-.37.39-.12.44.14.9.57,1.02h0c.44.09.89.07,1.31-.07,1.89-.44,3.82-.69,5.76-.75-1.17.54-2.26,1.24-3.24,2.08-.3.23-.53.53-.69.86-.16.35-.09.77.18,1.04.36.22.81.26,1.2.1,2.3-.62,4.33-2.12,6.69-2.46,1.23-.19,2.66-.11,3.51-1.02.37-.45.62-.98.75-1.54.52-1.78,1.57-5.53.5-7.27-.42-.69-1.45-1.25-2.08-1.76-1.08-.9-2.2-1.75-3.36-2.54Z" style="fill: rgb(104, 225, 253);"/><path class="cls-14_cybersecurity-16" d="M345.2,296.04c-.4-.32-.88-.53-1.38-.6-.52-.06-1.01.27-1.13.78,0,.35.12.69.34.97l.93,1.46c.12.15.19.33.2.53,0,.48-.69.58-1.18.52-3.04-.39-6.08-1.33-9.12-.93-.23,0-.46.1-.63.26-.18.27-.15.63.08.86.23.22.51.38.82.46,1.7.62,3.45,1.11,5.22,1.47-.2.5-.86.59-1.38.61-1.47.05-2.93.22-4.38.5-.82.15-1.83.57-1.84,1.38.05.56.45,1.03.99,1.16.54.13,1.09.14,1.63.06,1.9-.16,3.82-.11,5.71.15-2.05.24-3.99,1.02-5.62,2.28-.15.1-.27.24-.36.4-.19.4.17.89.59,1.02.44.09.89.06,1.31-.08,1.89-.44,3.82-.69,5.76-.75-1.17.54-2.26,1.24-3.24,2.08-.3.23-.53.53-.69.86-.16.35-.09.77.18,1.04.36.22.8.26,1.19.1,2.3-.62,4.34-2.12,6.7-2.46,1.23-.19,2.66-.11,3.51-1.02.37-.45.62-.98.75-1.54.51-1.78,1.57-5.53.5-7.26-.42-.69-1.45-1.26-2.08-1.77-1.08-.9-2.21-1.75-3.38-2.54Z"/><path class="cls-11_cybersecurity-16" d="M383.76,293.21c-.4-.32-.88-.53-1.38-.6-.52-.06-1.01.27-1.13.78,0,.35.12.69.34.97l.93,1.46c.12.15.19.33.2.53-.03.48-.69.58-1.18.52-3.04-.39-6.08-1.34-9.12-.93-.23,0-.46.09-.63.25-.18.27-.15.64.08.87.23.22.51.38.82.46,1.7.62,3.45,1.11,5.22,1.47-.2.5-.86.58-1.38.6-1.47.06-2.93.23-4.38.51-.82.15-1.83.56-1.84,1.38.05.56.45,1.03.99,1.16.54.13,1.09.14,1.63.06,1.9-.16,3.82-.11,5.71.15-2.05.23-3.99,1.02-5.62,2.28-.15.1-.28.24-.37.39-.12.44.14.9.57,1.02h0c.44.09.89.07,1.31-.07,1.89-.44,3.82-.69,5.76-.75-1.17.54-2.26,1.24-3.24,2.08-.3.23-.53.53-.69.86-.16.35-.09.77.18,1.04.36.22.81.26,1.2.1,2.3-.62,4.33-2.12,6.69-2.46,1.23-.19,2.66-.11,3.51-1.02.37-.45.62-.98.75-1.54.52-1.78,1.57-5.53.5-7.27-.42-.69-1.45-1.25-2.08-1.76-1.08-.9-2.2-1.75-3.36-2.54Z"/></g></svg>