<?xml version="1.0" standalone="no"?>
<!DOCTYPE svg PUBLIC "-//W3C//DTD SVG 20010904//EN"
 "http://www.w3.org/TR/2001/REC-SVG-20010904/DTD/svg10.dtd">
<svg version="1.0" xmlns="http://www.w3.org/2000/svg"
 width="1920.000000pt" height="1080.000000pt" viewBox="0 0 1920.000000 1080.000000"
 preserveAspectRatio="xMidYMid meet">

<g transform="translate(0.000000,1080.000000) scale(0.100000,-0.100000)"
fill="#000000" stroke="none">
<path d="M9320 7844 c-195 -126 -485 -245 -695 -288 -398 -80 -996 -17 -1307
139 l-88 43 0 -779 0 -779 115 0 115 0 0 605 c0 333 1 605 3 605 1 0 34 -9 72
-20 86 -25 254 -54 400 -70 174 -19 561 -8 705 19 218 41 533 163 722 277 l58
35 60 -36 c173 -105 475 -224 671 -264 328 -68 848 -48 1163 45 27 7 53 14 58
14 4 0 8 -270 8 -600 l0 -600 115 0 115 0 0 774 0 774 -87 -44 c-309 -155
-908 -218 -1308 -138 -228 46 -595 204 -754 326 -13 10 -31 18 -40 17 -9 0
-54 -25 -101 -55z"/>
<path d="M9357 7007 c-87 -27 -147 -108 -147 -197 0 -39 -4 -52 -17 -57 -10
-3 -28 -15 -40 -26 -22 -20 -23 -26 -23 -218 l0 -198 26 -20 c25 -20 39 -21
264 -21 225 0 239 1 264 21 l26 20 0 198 c0 194 0 198 -23 219 -13 12 -31 22
-40 22 -14 0 -17 10 -17 53 -1 99 -64 183 -156 206 -52 13 -68 13 -117 -2z
m139 -63 c47 -23 84 -87 84 -147 l0 -47 -160 0 -160 0 0 48 c0 55 31 113 76
142 36 25 113 26 160 4z m-42 -370 c18 -17 21 -46 7 -72 -6 -9 -12 -29 -16
-44 -9 -47 -40 -36 -59 21 -21 64 -20 88 2 100 25 15 48 13 66 -5z"/>
<path d="M9973 5948 c3 -112 9 -214 13 -228 6 -21 1 -19 -33 17 -60 65 -120
88 -223 87 -72 0 -93 -4 -136 -26 -127 -66 -189 -202 -189 -418 0 -124 14
-198 51 -272 56 -112 143 -169 260 -170 97 -1 147 17 210 75 l54 49 24 -56 25
-56 90 0 91 0 0 600 0 600 -121 0 -122 0 6 -202z m-69 -336 c18 -10 41 -38 56
-67 22 -44 25 -63 25 -165 0 -103 -3 -120 -25 -164 -36 -71 -67 -91 -143 -91
-77 0 -120 27 -151 94 -17 38 -21 65 -21 161 0 100 3 121 23 162 24 48 59 81
97 91 33 9 106 -2 139 -21z"/>
<path d="M11388 6134 c-37 -20 -48 -43 -48 -104 0 -40 5 -56 24 -75 48 -48
153 -46 199 5 46 51 33 146 -24 176 -36 18 -116 17 -151 -2z"/>
<path d="M12870 5550 l0 -600 115 0 115 0 0 133 0 134 43 33 c23 18 47 37 53
41 6 5 56 -56 134 -166 l123 -175 134 0 c105 0 133 3 127 13 -4 6 -85 116
-180 243 l-172 232 79 87 c44 49 121 132 170 187 l91 98 -133 0 -134 0 -120
-131 c-65 -72 -141 -159 -168 -193 -27 -33 -50 -62 -50 -63 -1 -1 -1 163 1
363 l3 364 -115 0 -116 0 0 -600z"/>
<path d="M5970 6075 c-152 -43 -270 -132 -333 -253 -54 -105 -62 -148 -61
-322 0 -141 3 -162 28 -237 47 -142 141 -243 272 -293 118 -44 341 -43 519 2
l90 23 3 293 2 292 -220 0 -220 0 0 -100 0 -100 105 0 105 0 0 -114 c0 -135 7
-128 -135 -130 -80 0 -97 3 -148 27 -92 46 -140 127 -158 270 -25 191 43 357
174 424 95 48 233 48 360 2 32 -12 59 -20 61 -18 4 4 76 180 76 186 0 1 -37
14 -82 29 -72 24 -102 28 -233 30 -112 3 -164 0 -205 -11z"/>
<path d="M10470 5515 l0 -565 350 0 350 0 0 100 0 100 -230 0 -230 0 0 465 0
465 -120 0 -120 0 0 -565z"/>
<path d="M7980 5815 c-78 -18 -170 -54 -170 -66 0 -16 70 -149 78 -149 4 0 30
9 59 20 28 11 81 24 118 30 120 19 184 -17 193 -110 4 -44 2 -50 -14 -50 -11
0 -75 -5 -144 -10 -275 -20 -373 -94 -373 -280 0 -87 19 -139 66 -189 51 -53
105 -73 203 -72 110 0 170 20 234 78 28 25 52 44 55 42 2 -2 12 -27 23 -54
l20 -50 81 -3 82 -3 -3 343 c-3 332 -4 344 -25 384 -29 54 -88 104 -149 127
-67 26 -246 32 -334 12z m278 -535 c-6 -112 -56 -162 -168 -168 -63 -4 -71 -2
-94 21 -21 21 -26 36 -26 76 0 95 72 138 234 140 l58 1 -4 -70z"/>
<path d="M9139 5816 c-71 -25 -155 -93 -172 -138 -8 -24 -24 4 -37 70 l-13 62
-88 0 -89 0 0 -430 0 -430 115 0 115 0 0 233 c0 259 9 313 57 359 52 48 92 62
175 63 71 0 78 2 79 20 0 11 4 58 8 105 6 60 5 87 -3 92 -18 12 -108 8 -147
-6z"/>
<path d="M12227 5820 c-57 -15 -98 -38 -143 -82 l-42 -40 -16 56 -17 56 -89 0
-90 0 0 -430 0 -430 115 0 115 0 0 213 c1 243 9 328 40 391 50 103 216 118
267 23 16 -28 18 -68 21 -329 l3 -298 121 0 120 0 -4 323 c-6 360 -10 391 -72
464 -47 54 -119 84 -215 89 -42 2 -93 -1 -114 -6z"/>
<path d="M6742 5478 c3 -323 4 -334 26 -383 43 -94 106 -139 214 -154 121 -17
224 12 295 81 l42 41 9 -24 c5 -13 13 -39 17 -56 l7 -33 94 0 94 0 0 430 0
430 -120 0 -120 0 0 -242 c-1 -305 -15 -375 -85 -418 -82 -51 -183 -30 -220
45 -18 37 -20 64 -23 328 l-4 287 -114 0 -115 0 3 -332z"/>
<path d="M11350 5380 l0 -430 115 0 115 0 0 430 0 430 -115 0 -115 0 0 -430z"/>
<path d="M7520 4598 c0 -20 128 -256 202 -372 397 -625 977 -1100 1589 -1302
l109 -36 112 38 c656 218 1272 749 1665 1434 70 122 123 225 123 240 0 6 -47
10 -127 10 l-128 -1 -54 -97 c-289 -520 -730 -963 -1204 -1212 -143 -76 -319
-149 -372 -157 -50 -6 -191 46 -374 139 -255 130 -453 278 -691 517 -237 238
-403 457 -541 711 l-54 100 -127 0 c-91 0 -128 -3 -128 -12z"/>
</g>
</svg>
